<svg width="48" height="48" viewBox="0 0 48 48" fill="none" xmlns="http://www.w3.org/2000/svg">
<g clip-path="url(#clip0_1_337)">
<path d="M24.0001 48C37.2549 48 48 37.2549 48 24.0001C48 10.7454 37.2549 -0.000148773 24.0001 -0.000148773C10.7454 -0.000148773 -0.000148773 10.7454 -0.000148773 24.0001C0.0147934 37.2488 10.7511 47.9851 24.0001 48V48ZM24.0001 2.40015C35.9295 2.40015 45.6001 12.0708 45.6001 24.0001C45.6001 35.9295 35.9295 45.6001 24.0001 45.6001C12.0708 45.6001 2.40015 35.9295 2.40015 24.0001C2.41377 12.0765 12.0765 2.41377 24.0001 2.40015Z" fill="black"/>
<path d="M26.8102 33.3034C27.3094 33.7398 28.0675 33.6888 28.5039 33.19C28.9398 32.6908 28.8888 31.9327 28.39 31.4964L19.8225 24.0002L28.3905 16.5035C28.8897 16.0672 28.9402 15.3091 28.5043 14.8103C28.0679 14.3111 27.3099 14.2601 26.8106 14.6965L17.2108 23.0967C16.9502 23.3243 16.8008 23.6539 16.8008 24.0002C16.8008 24.3465 16.9502 24.6756 17.2108 24.9037L26.8102 33.3034Z" fill="black"/>
</g>
<defs>
<clipPath id="clip0_1_337">
<rect width="48" height="48" fill="white" transform="matrix(-1 0 0 -1 48 48)"/>
</clipPath>
</defs>
</svg>
