<svg width="48" height="48" viewBox="0 0 48 48" fill="none" xmlns="http://www.w3.org/2000/svg">
<g clip-path="url(#clip0_242_37)">
<path d="M24.0001 48C37.2549 48 48 37.2549 48 24.0001C48 10.7454 37.2549 -0.000148773 24.0001 -0.000148773C10.7454 -0.000148773 -0.000148773 10.7454 -0.000148773 24.0001C0.0147934 37.2488 10.7511 47.9851 24.0001 48V48ZM24.0001 2.40015C35.9295 2.40015 45.6001 12.0708 45.6001 24.0001C45.6001 35.9295 35.9295 45.6001 24.0001 45.6001C12.0708 45.6001 2.40015 35.9295 2.40015 24.0001C2.41377 12.0765 12.0765 2.41377 24.0001 2.40015Z" fill="white"/>
<path d="M26.81 33.3034C27.3092 33.7397 28.0672 33.6888 28.5036 33.19C28.9396 32.6908 28.8886 31.9327 28.3898 31.4963L19.8222 24.0001L28.3902 16.5035C28.8895 16.0671 28.94 15.3091 28.5041 14.8103C28.0677 14.3111 27.3096 14.2601 26.8104 14.6965L17.2106 23.0966C16.95 23.3243 16.8005 23.6539 16.8005 24.0001C16.8005 24.3464 16.95 24.6756 17.2106 24.9037L26.81 33.3034Z" fill="white"/>
</g>
<defs>
<clipPath id="clip0_242_37">
<rect width="48" height="48" fill="white" transform="matrix(-1 0 0 -1 48 48)"/>
</clipPath>
</defs>
</svg>
