<svg width="49" height="42" viewBox="0 0 49 42" fill="none" xmlns="http://www.w3.org/2000/svg">
<path d="M25.9319 29.6328C25.9323 32.2972 26.7572 34.8882 28.2805 37.0102C29.8037 39.1321 31.9417 40.6682 34.3679 41.3839C36.794 42.0995 39.3749 41.9555 41.7164 40.9736C44.0578 39.9918 46.0311 38.2262 47.3348 35.9465C48.6386 33.6667 49.201 30.9983 48.9364 28.3486C48.6717 25.6989 47.5944 23.2137 45.8691 21.2726C44.1437 19.3315 41.8652 18.0411 39.3815 17.5987C36.8977 17.1562 34.3454 17.5859 32.1142 18.8222C32.8854 15.7963 33.9729 13.2618 35.2746 11.2399C37.878 7.18897 41.2888 5.22976 44.8809 5.22976C45.5364 5.22976 46.1651 4.95429 46.6286 4.46395C47.0921 3.97362 47.3525 3.30858 47.3525 2.61515C47.3525 1.92171 47.0921 1.25668 46.6286 0.766338C46.1651 0.276005 45.5364 0.000537872 44.8809 0.000537872C39.3741 0.000537872 34.543 3.0788 31.1849 8.29757C27.8565 13.478 25.9319 20.7884 25.9319 29.6328Z" fill="#DADADA"/>
<path d="M1.52588e-05 29.6328C0.000430325 32.2972 0.825279 34.8882 2.34857 37.0102C3.87186 39.1321 6.00986 40.6682 8.43599 41.3839C10.8621 42.0995 13.443 41.9555 15.7845 40.9736C18.1259 39.9918 20.0992 38.2262 21.403 35.9465C22.7067 33.6667 23.2692 30.9983 23.0045 28.3486C22.7398 25.6989 21.6625 23.2137 19.9372 21.2726C18.2119 19.3315 15.9333 18.0411 13.4496 17.5987C10.9659 17.1562 8.41348 17.5859 6.18233 18.8222C6.95347 15.7963 8.04098 13.2618 9.34269 11.2399C11.9461 7.18897 15.3569 5.22976 18.949 5.22976C19.6045 5.22976 20.2332 4.95429 20.6967 4.46395C21.1602 3.97362 21.4206 3.30858 21.4206 2.61515C21.4206 1.92171 21.1602 1.25667 20.6967 0.766338C20.2332 0.276004 19.6045 0.000537872 18.949 0.000537872C13.4423 0.000537872 8.61109 3.07881 5.253 8.29757C1.92457 13.478 1.52588e-05 20.7884 1.52588e-05 29.6328Z" fill="#DADADA"/>
</svg>
